<?xml version="1.0" standalone="no"?>
<!DOCTYPE svg PUBLIC "-//W3C//DTD SVG 20010904//EN"
 "http://www.w3.org/TR/2001/REC-SVG-20010904/DTD/svg10.dtd">
<svg version="1.0" xmlns="http://www.w3.org/2000/svg"
 width="375.000000pt" height="375.000000pt" viewBox="0 0 375.000000 375.000000"
 preserveAspectRatio="xMidYMid meet">
<metadata>
Created by potrace 1.14, written by Peter Selinger 2001-2017
</metadata>
<g transform="translate(0.000000,375.000000) scale(0.100000,-0.100000)"
fill="#000000" stroke="none">
<path d="M1735 3728 c-13 -3 -61 -9 -105 -12 -45 -3 -84 -7 -88 -10 -4 -2 -28
-7 -52 -10 -25 -4 -54 -11 -65 -16 -11 -5 -45 -16 -75 -24 -124 -32 -342 -127
-428 -184 -15 -10 -60 -40 -101 -67 -40 -27 -79 -55 -86 -62 -8 -7 -17 -13
-21 -13 -16 0 -249 -241 -309 -321 -36 -47 -65 -89 -65 -93 0 -4 -5 -12 -10
-19 -21 -25 -100 -149 -100 -157 0 -4 -20 -49 -45 -99 -25 -50 -45 -97 -45
-105 0 -7 -7 -29 -15 -49 -17 -42 -47 -152 -71 -267 -15 -68 -19 -131 -19
-315 0 -203 3 -260 20 -365 8 -48 55 -225 71 -265 9 -22 20 -49 24 -60 34 -82
87 -196 107 -228 14 -22 36 -60 50 -85 69 -123 245 -327 360 -417 15 -11 35
-30 46 -42 12 -13 26 -23 33 -23 6 0 17 -7 24 -15 16 -19 146 -105 160 -105 5
0 10 -3 10 -7 0 -5 19 -17 43 -28 23 -11 44 -22 47 -25 5 -5 118 -56 155 -70
11 -4 44 -17 74 -29 59 -23 242 -70 294 -75 17 -2 52 -7 77 -10 146 -22 335
-22 480 -1 30 5 69 10 85 11 28 3 73 14 205 51 171 47 470 196 558 278 15 14
30 25 33 25 20 0 269 239 307 295 15 22 29 42 32 45 23 22 90 115 90 125 0 8
3 15 8 17 18 8 144 250 154 298 2 8 5 17 8 20 9 8 58 161 75 235 81 348 62
713 -55 1050 -33 95 -167 365 -182 365 -4 0 -8 6 -8 14 0 7 -18 36 -40 64 -22
27 -40 53 -40 56 0 19 -332 352 -349 350 -3 0 -12 6 -19 13 -35 35 -148 104
-262 161 -41 20 -78 41 -81 45 -3 5 -9 8 -13 7 -10 -2 -76 23 -76 30 0 3 -11
7 -25 8 -14 1 -39 9 -55 17 -17 9 -51 20 -78 25 -82 16 -90 18 -109 27 -10 5
-25 9 -33 8 -8 -1 -20 3 -27 8 -6 4 -33 10 -60 11 -26 2 -77 7 -113 11 -86 9
-274 12 -305 3z"/>
</g>
</svg>
